<svg version="1.1" id="Layer_1" xmlns="http://www.w3.org/2000/svg" xmlns:xlink="http://www.w3.org/1999/xlink" x="0px" y="0px"
	 width="100%" viewBox="0 0 539 1019" enable-background="new 0 0 539 1019" xml:space="preserve">
<path fill="#FFFEFF" opacity="1.000000" stroke="none" 
	d="
M1.000000,949.000000 
	C1.000000,860.645752 1.000000,772.291565 1.462616,683.463318 
	C181.283493,682.992859 360.641754,682.996399 540.000000,683.000000 
	C540.000000,771.354248 540.000000,859.708435 539.756470,948.529419 
	C539.512939,948.996155 539.025879,948.993774 538.554321,948.992188 
	C471.388916,948.983948 404.695068,948.977356 337.702148,948.679932 
	C336.256653,948.260803 335.110229,948.020569 333.963745,948.020386 
	C267.968048,948.010620 201.972366,948.020752 135.510376,948.022888 
	C92.428795,948.008667 49.813480,947.988953 7.198235,948.034668 
	C5.477483,948.036560 3.757396,948.657776 1.777754,948.993164 
	C1.345672,948.997314 1.172836,948.998657 1.000000,949.000000 
M87.315384,731.521179 
	C88.227005,731.923767 89.138626,732.326355 90.720177,733.138611 
	C97.329941,733.138611 103.939705,733.138611 109.725365,733.138611 
	C110.175484,727.598938 110.630203,722.834473 110.936745,718.060486 
	C111.617928,707.452026 101.196373,698.663879 91.127914,701.727722 
	C83.754128,703.418945 79.915550,708.580933 79.107018,715.575256 
	C78.391159,721.767883 80.620155,727.215576 86.736473,730.787842 
	C86.736473,730.787842 87.092056,730.965698 87.315384,731.521179 
M510.047791,700.591980 
	C506.390076,700.641479 502.732330,700.691040 498.379181,700.452271 
	C495.916016,700.598877 493.452820,700.745483 490.166840,701.065063 
	C489.854767,701.616272 489.274658,702.165527 489.270599,702.719055 
	C489.199646,712.358032 489.157257,721.997986 489.262970,731.636047 
	C489.271454,732.411377 490.404205,733.174438 491.441895,734.220703 
	C494.895966,730.958862 498.412689,727.760010 501.780273,724.411194 
	C503.749603,722.452759 505.338562,722.593201 507.185608,724.544617 
	C509.907776,727.420715 512.681091,730.264709 515.643433,732.883850 
	C516.271790,733.439392 517.807312,732.968811 519.043335,732.044006 
	C519.048462,722.961426 519.141479,713.877075 518.961670,704.798157 
	C518.935364,703.470337 517.609680,702.168274 516.398254,700.527222 
	C514.582520,700.598572 512.766846,700.669861 510.047791,700.591980 
M24.224495,721.632019 
	C27.276449,724.380676 30.487507,726.975525 33.335636,729.921265 
	C36.182991,732.866150 38.329617,732.413147 40.961510,728.956116 
	C42.367596,727.794189 43.773678,726.632324 45.684525,725.779175 
	C46.483795,724.743896 47.283066,723.708679 48.537956,722.274597 
	C49.710533,720.913513 51.056633,719.664429 52.022114,718.169617 
	C54.599865,714.178650 54.805984,709.635315 51.819687,706.220337 
	C49.823196,703.937195 46.186039,702.503845 43.069935,701.994812 
	C41.066368,701.667480 38.675968,703.707886 36.476471,704.679321 
	C29.748959,700.339905 26.261162,700.664124 21.435400,706.384094 
	C18.568127,711.893188 19.395966,716.784241 24.224495,721.632019 
M160.972733,717.423340 
	C163.845779,712.485474 166.718826,707.547607 169.977509,701.947021 
	C166.772110,701.947021 164.636795,701.947021 161.636002,701.802551 
	C154.924469,701.850403 148.212921,701.898193 140.744873,701.856750 
	C139.077789,701.856750 137.410690,701.856750 135.743607,701.856750 
	C135.333466,702.527466 134.923309,703.198181 134.513168,703.868896 
	C135.905258,704.652710 137.297348,705.436523 138.999680,706.817444 
	C142.113190,710.843323 145.226715,714.869202 148.345520,719.726624 
	C149.334686,723.771484 150.323853,727.816345 151.645737,733.221680 
	C155.116043,727.246399 157.812759,722.603149 160.972733,717.423340 
z"/>
<path fill="#FFFEFF" opacity="1.000000" stroke="none" 
	d="
M1.000000,141.000000 
	C1.000000,117.312439 1.000000,93.624878 1.461254,69.468063 
	C181.281677,68.999207 360.640839,68.999603 540.000000,69.000000 
	C540.000000,92.687561 540.000000,116.375122 539.550659,140.382263 
	C537.280396,140.803787 535.459412,140.994873 533.638489,140.994980 
	C356.092316,141.006012 178.546158,141.002548 1.000000,141.000000 
M21.106915,129.349747 
	C21.217794,129.393448 21.328674,129.437134 21.439558,129.480835 
	C21.309908,129.306473 21.180258,129.132095 20.927305,128.632019 
	C20.812714,128.586105 20.698120,128.540192 20.583529,128.494278 
	C20.710571,128.677414 20.837614,128.860535 21.106915,129.349747 
M61.084606,86.360504 
	C61.191696,86.410469 61.298786,86.460434 61.405876,86.510399 
	C61.283619,86.329651 61.161366,86.148903 60.835423,85.521446 
	C60.638161,85.243683 60.376301,85.056084 59.841751,84.513931 
	C59.640118,84.240089 59.376270,84.054855 58.839657,83.514008 
	C58.634571,83.242157 58.368263,83.059631 57.902473,82.648102 
	C57.787811,82.604568 57.673149,82.561028 57.558487,82.517494 
	C57.692780,82.693939 57.827072,82.870384 58.155243,83.501160 
	C58.349178,83.789902 58.615292,83.974815 59.155350,84.505165 
	C59.350536,84.791672 59.616776,84.975098 60.157513,85.504417 
	C60.354660,85.790764 60.623085,85.970978 61.084606,86.360504 
M14.916238,122.636055 
	C14.808661,122.586830 14.701085,122.537598 14.593510,122.488373 
	C14.714449,122.670815 14.835388,122.853249 15.038433,123.590591 
	C15.351649,123.897774 15.664866,124.204956 15.978081,124.512138 
	C16.155256,124.306023 16.332432,124.099907 16.509609,123.893799 
	C16.020363,123.579018 15.531119,123.264229 14.916238,122.636055 
M50.724998,77.427315 
	C41.999184,73.913017 33.442398,73.802025 25.116795,78.743225 
	C34.337639,75.728951 43.501995,75.204514 52.776802,78.916122 
	C52.307419,78.528397 51.838036,78.140678 50.724998,77.427315 
M65.610298,95.237595 
	C69.209541,103.124260 67.076210,111.030319 65.452080,118.931015 
	C70.264015,109.619492 70.444878,100.445953 64.394196,91.574226 
	C64.686996,92.572479 64.979797,93.570740 65.610298,95.237595 
M27.899485,133.161530 
	C35.119152,136.122910 42.231365,135.850098 49.238483,132.494308 
	C42.054150,132.494308 34.869820,132.494308 27.899485,133.161530 
M9.035237,110.914757 
	C9.656792,112.753311 10.278347,114.591873 10.963437,116.618362 
	C10.963437,109.001541 10.963437,101.869568 10.963437,94.737595 
	C10.593111,94.708298 10.222785,94.678993 9.852459,94.649696 
	C9.571073,99.778778 9.289687,104.907867 9.035237,110.914757 
M63.245071,89.645943 
	C63.281609,89.277267 63.318142,88.908592 63.354679,88.539917 
	C63.094864,88.524307 62.835052,88.508690 62.575237,88.493080 
	C62.627335,88.862602 62.679432,89.232124 63.245071,89.645943 
M55.631500,80.793625 
	C55.262501,80.732941 54.893501,80.672256 54.524498,80.611572 
	C54.534718,80.871712 54.544941,81.131851 54.555164,81.391998 
	C54.925556,81.364532 55.295952,81.337074 55.631500,80.793625 
M15.526268,88.325706 
	C15.258021,88.044601 14.989776,87.763504 14.721526,87.482407 
	C14.605547,87.598221 14.379989,87.804970 14.389598,87.816551 
	C14.635276,88.112564 14.905537,88.388176 15.526268,88.325706 
M12.634691,92.517197 
	C12.634691,92.517197 12.441146,92.403786 12.441146,92.403786 
	C12.441146,92.403786 12.468629,92.641472 12.634691,92.517197 
M13.363320,90.476944 
	C13.363320,90.476944 13.555438,90.588768 13.555438,90.588768 
	C13.555438,90.588768 13.527465,90.352562 13.363320,90.476944 
M51.653862,131.525681 
	C51.653862,131.525681 51.440548,131.417557 51.440548,131.417557 
	C51.440548,131.417557 51.479786,131.638382 51.653862,131.525681 
M12.358878,118.480606 
	C12.358878,118.480606 12.555007,118.593727 12.555007,118.593727 
	C12.555007,118.593727 12.525895,118.355316 12.358878,118.480606 
M13.480230,120.647675 
	C13.480230,120.647675 13.589523,120.436310 13.589523,120.436310 
	C13.589523,120.436310 13.368590,120.473755 13.480230,120.647675 
M55.512527,129.356293 
	C55.512527,129.356293 55.402718,129.548462 55.402718,129.548462 
	C55.402718,129.548462 55.629681,129.519989 55.512527,129.356293 
M23.480783,130.634903 
	C23.480783,130.634903 23.593555,130.441284 23.593555,130.441284 
	C23.593555,130.441284 23.357098,130.469193 23.480783,130.634903 
M53.353077,130.477585 
	C53.353077,130.477585 53.564568,130.586075 53.564568,130.586075 
	C53.564568,130.586075 53.526653,130.367004 53.353077,130.477585 
M25.649025,131.524353 
	C25.649025,131.524353 25.434307,131.414902 25.434307,131.414902 
	C25.434307,131.414902 25.473349,131.637146 25.649025,131.524353 
z"/>
<path fill="#FEFAFE" opacity="1.000000" stroke="none" 
	d="
M1.000000,949.468628 
	C1.172836,948.998657 1.345672,948.997314 2.242282,948.999023 
	C47.310547,949.007690 91.655037,949.013245 136.297302,949.311218 
	C137.740814,949.734619 138.886536,949.979980 140.032288,949.980164 
	C206.029892,949.989929 272.027496,949.979309 338.491180,949.975830 
	C403.758484,949.990601 468.559692,950.008728 533.360901,949.967041 
	C535.249390,949.965881 537.137573,949.332458 539.025879,948.993774 
	C539.025879,948.993774 539.512939,948.996155 539.756470,948.998047 
	C540.000000,972.651428 540.000000,996.302917 540.000000,1019.950256 
	C360.333313,1019.946167 180.666656,1019.946167 1.000000,1019.946167 
	C1.000000,996.574036 1.000000,973.255676 1.000000,949.468628 
M335.997131,993.485229 
	C336.226440,993.093445 336.455780,992.701660 337.176758,991.863159 
	C337.385254,991.252930 337.593750,990.642639 338.104828,989.442444 
	C338.209106,988.791809 338.313354,988.141113 338.907593,986.903931 
	C338.746918,981.774780 338.586273,976.645630 338.413391,970.808228 
	C337.819611,969.292969 337.225830,967.777710 336.364777,965.728333 
	C335.393555,965.038330 334.422333,964.348328 333.182251,963.240662 
	C332.446625,963.122498 331.710968,963.004395 330.316101,962.678467 
	C329.880829,962.792053 329.445557,962.905579 328.078949,962.945862 
	C323.380524,962.995972 318.682068,963.046082 313.205170,962.869629 
	C307.596130,963.542175 304.768311,966.491211 304.383759,972.684692 
	C304.108459,977.118408 304.112274,981.592346 304.347046,986.029480 
	C304.687683,992.466736 307.412903,995.260925 314.689911,996.814758 
	C319.478577,996.704407 324.267273,996.594116 329.806274,996.453125 
	C331.374725,995.808289 332.943207,995.163513 334.956451,994.377930 
	C335.243561,994.223083 335.446533,993.993713 335.997131,993.485229 
M101.006668,988.441406 
	C102.312004,986.827759 103.617348,985.214172 104.922722,983.600586 
	C106.202972,985.427307 107.763458,987.128235 108.660873,989.126892 
	C109.220726,990.373779 108.594643,992.102722 108.850945,993.553467 
	C109.030128,994.567688 109.752975,996.268250 110.316887,996.303101 
	C113.600548,996.505737 117.105209,996.907593 120.106400,995.928162 
	C121.208138,995.568604 121.526932,991.617493 121.516144,989.307922 
	C121.497879,985.398804 122.229591,980.634583 120.329292,977.763062 
	C116.367332,971.776550 110.892479,966.791260 104.836281,960.056946 
	C99.009720,966.596619 94.424583,971.612427 90.027710,976.788208 
	C89.153816,977.816895 88.649246,979.441467 88.582863,980.820557 
	C88.391441,984.797180 88.371368,988.796509 88.589943,992.770020 
	C88.659088,994.027100 89.383087,995.921387 90.334236,996.347107 
	C96.461464,999.089783 100.988548,996.007568 101.006668,988.441406 
M441.718475,985.196960 
	C442.082489,984.856812 442.462311,984.531982 442.808075,984.174194 
	C447.651825,979.162231 448.713654,973.566406 445.714478,968.891479 
	C442.774750,964.309204 438.478485,963.645569 431.317139,966.470520 
	C430.462769,966.807495 429.162506,966.598267 428.280823,966.187561 
	C422.298920,963.400513 417.898163,964.117554 414.621674,968.565430 
	C411.689392,972.546021 412.104858,978.642151 416.046814,982.704224 
	C419.623077,986.389282 423.431732,989.908264 427.513611,993.005371 
	C428.666565,993.880127 431.587677,993.692078 432.915771,992.811646 
	C435.927551,990.815063 438.452942,988.084778 441.718475,985.196960 
M224.000946,971.758911 
	C219.943008,963.365051 212.384689,960.023987 204.860397,963.298157 
	C197.626358,966.446106 194.305786,973.979248 196.841385,981.490662 
	C199.231400,988.570801 207.583557,993.353027 214.519562,990.082214 
	C219.869781,987.559204 222.002014,990.245911 224.968246,993.105896 
	C226.395615,994.482117 228.066010,995.606262 229.626358,996.844543 
	C230.033401,996.354187 230.440460,995.863892 230.847519,995.373535 
	C228.871475,993.247742 227.061600,990.928711 224.874756,989.048096 
	C222.475571,986.984985 222.395950,985.206604 223.485886,982.211731 
	C224.550827,979.285461 224.030060,975.782104 224.000946,971.758911 
z"/>
<path fill="#FDF9FD" opacity="1.000000" stroke="none" 
	d="
M1.000000,67.000000 
	C1.000000,45.014351 1.000000,23.028700 1.000002,1.047789 
	C180.666672,1.052530 360.333344,1.052530 540.000000,1.052530 
	C540.000000,22.757601 540.000000,44.410141 539.541748,66.461372 
	C537.420593,66.907501 535.757629,66.996437 534.094666,66.996490 
	C356.396454,67.001976 178.698227,67.000793 1.000000,67.000000 
M456.801178,30.437237 
	C459.410492,27.755417 460.246490,24.601084 457.762238,21.658895 
	C455.007324,18.396250 451.554993,19.890676 447.601044,21.135126 
	C446.606873,21.074123 445.612671,21.013121 444.574738,20.949432 
	C444.678650,19.716549 444.779968,18.514994 444.950012,16.497766 
	C442.926575,18.007729 441.646667,18.962835 440.235321,20.016026 
	C438.936432,18.956059 437.708923,17.954372 435.730743,16.340084 
	C436.027710,18.438131 436.191162,19.592892 436.364716,20.743536 
	C428.965515,21.503757 423.864014,22.835676 424.678619,34.031319 
	C424.907257,37.173412 424.628265,40.349060 424.711334,43.505913 
	C424.844818,48.579361 428.045105,51.870686 433.083710,52.018902 
	C437.237030,52.141075 441.443481,52.424500 445.537781,51.918861 
	C448.431366,51.561512 451.176849,50.004822 454.643219,48.661552 
	C455.185547,42.786335 455.727875,36.911118 456.801178,30.437237 
M215.146011,33.097141 
	C215.081787,28.391481 215.081787,28.391481 211.971634,28.124985 
	C210.535370,41.527946 211.034515,44.927448 214.805115,46.043991 
	C215.713577,42.739586 216.621597,39.436790 218.100983,35.696243 
	C218.864410,34.658146 219.627823,33.620049 220.391251,32.581947 
	C221.298294,36.000267 221.152832,38.951347 221.334412,41.882160 
	C221.571671,45.711521 223.104935,47.626331 227.749802,45.006218 
	C228.733170,45.033966 229.716537,45.061710 231.459305,45.423359 
	C236.858047,47.864304 240.522186,45.194923 243.632980,41.039494 
	C247.345276,47.535110 248.822800,47.778690 253.844559,42.761047 
	C256.747345,47.901222 260.323151,46.907345 264.107452,43.318138 
	C266.610291,47.980038 269.606323,46.013672 271.701385,44.681007 
	C274.069061,45.844109 275.816284,46.702412 277.369629,47.465462 
	C276.924286,48.653187 276.486023,49.822041 275.338501,51.091248 
	C274.481384,53.061047 272.442627,55.529003 273.018372,56.894733 
	C274.143036,59.562462 276.962311,60.501690 280.594666,58.159809 
	C285.317108,57.462036 284.471985,53.510639 285.015991,50.450512 
	C285.599182,47.169884 285.972168,43.851887 286.436890,40.550198 
	C285.592010,38.328564 285.346252,35.893944 285.022125,33.469807 
	C284.789398,31.729607 285.057831,29.387102 284.043915,28.390200 
	C281.345428,25.737043 273.656494,27.733036 272.309204,31.380056 
	C271.411957,33.808857 271.438202,36.566216 270.898499,39.144577 
	C270.588989,40.623203 269.974518,42.037994 269.497284,43.481518 
	C268.746124,43.383755 267.994965,43.285995 267.243805,43.188232 
	C267.243805,39.337585 267.423737,35.473858 267.145355,31.643444 
	C267.048981,30.317253 266.044128,28.186842 265.063507,27.932980 
	C257.278992,25.917767 254.843491,27.830730 253.568771,36.052696 
	C253.144516,38.789158 253.155884,42.090252 248.776154,42.902054 
	C248.776154,37.395111 248.776154,32.199516 248.776154,27.077827 
	C250.846756,26.663658 252.501404,26.332691 254.156036,26.001724 
	C254.170685,25.587912 254.185318,25.174099 254.199951,24.760286 
	C252.448563,24.339785 250.697159,23.919283 249.850586,23.716022 
	C248.462128,21.210066 247.409973,19.311096 246.357819,17.412125 
	C245.856766,17.603655 245.355728,17.795185 244.854691,17.986715 
	C244.493347,19.702204 244.132019,21.417690 243.820938,22.894554 
	C242.115158,23.563919 240.604614,24.156668 239.094070,24.749414 
	C239.158340,25.128031 239.222626,25.506645 239.286896,25.885262 
	C240.765594,26.304951 242.244308,26.724640 244.281876,27.302946 
	C243.861816,31.370829 243.440613,35.449650 243.066864,39.068970 
	C240.232956,36.560982 237.903397,34.499336 235.610962,32.470543 
	C235.842590,31.114183 236.124405,29.463896 236.457413,27.513813 
	C228.941833,27.450352 231.262100,32.567314 230.111862,36.088211 
	C229.056549,37.987144 228.001251,39.886082 226.117493,41.836315 
	C225.818893,38.373844 225.661606,34.890224 225.148224,31.459898 
	C224.957962,30.188604 224.119858,28.234234 223.242340,28.029980 
	C221.949814,27.729120 220.071930,28.357746 218.961594,29.241529 
	C217.406815,30.479073 216.328613,32.315384 215.146011,33.097141 
M50.710709,46.442753 
	C50.822536,41.966301 51.002434,37.490280 51.030746,33.013298 
	C51.076885,25.717588 50.762646,25.394239 43.518566,22.970947 
	C42.665318,22.685520 42.034992,21.786312 41.198212,21.388550 
	C39.207600,20.442314 37.215652,19.423918 35.116173,18.796034 
	C29.321327,17.062994 26.213739,22.725594 21.500191,23.999899 
	C21.500191,23.999899 21.492369,23.942461 20.729502,23.964756 
	C19.361036,25.717495 17.001392,27.370611 16.813303,29.241989 
	C16.287012,34.478237 16.245922,39.849495 16.813948,45.080544 
	C17.223719,48.854202 19.969452,51.087681 24.136303,51.046211 
	C30.593189,50.981945 37.079166,51.373741 43.493824,50.849903 
	C45.788292,50.662537 47.911514,48.378242 50.710709,46.442753 
M301.018097,43.063309 
	C296.135712,41.698517 298.394958,37.820080 298.552734,35.068134 
	C298.755066,31.538717 300.740448,27.465584 294.173920,29.239056 
	C293.839386,29.329403 293.332123,28.480574 292.822357,28.282780 
	C291.672485,27.836617 289.773163,26.898037 289.428162,27.282112 
	C288.587006,28.218473 288.071381,29.809025 288.125397,31.107012 
	C288.217621,33.324280 288.846436,35.519222 289.126587,37.050102 
	C290.201874,35.680176 291.827332,33.609348 293.452759,31.538519 
	C293.902100,31.796612 294.351410,32.054703 294.800751,32.312798 
	C294.800751,35.709660 294.270233,39.214836 294.935974,42.475777 
	C295.755249,46.488602 298.743042,47.036636 302.771210,44.347469 
	C307.133392,47.095985 307.366669,47.080967 309.917572,43.930256 
	C309.917572,43.930256 309.870178,43.996288 310.592346,44.142826 
	C311.940857,44.495678 313.289398,44.848526 315.014374,45.764839 
	C318.230957,45.764839 321.447540,45.764839 324.429871,45.764839 
	C325.204163,41.605026 325.963654,37.524719 326.723114,33.444412 
	C328.082581,36.285000 328.184387,38.971889 328.841034,41.515545 
	C329.139679,42.672386 330.536133,43.545815 331.434631,44.547794 
	C332.079681,43.562599 332.919159,42.649529 333.318512,41.573174 
	C333.773315,40.347340 333.741760,38.949688 334.096954,37.675598 
	C334.399750,36.589436 334.951111,35.572567 335.760284,33.652309 
	C336.248474,38.969418 334.751801,44.064304 341.209656,45.827122 
	C335.740967,40.701801 342.523499,32.447659 335.987122,27.054480 
	C335.061066,28.352711 334.368347,29.208023 333.808563,30.142899 
	C333.303345,30.986605 332.943542,31.917370 332.326477,33.216354 
	C330.483337,26.815355 329.352600,26.392103 325.217377,29.537130 
	C323.677094,28.769320 322.338715,28.102160 320.223602,27.047800 
	C320.223602,31.672787 320.487915,35.163265 320.125305,38.587349 
	C319.904968,40.668045 320.316010,44.216492 316.051270,41.909821 
	C316.019196,38.431728 316.099487,34.946899 315.891571,31.479349 
	C315.822693,30.330757 315.322571,28.633343 314.490479,28.197874 
	C308.819824,25.230124 303.746185,27.956039 302.245270,34.814198 
	C302.309875,36.490459 302.374481,38.166721 302.281494,40.556995 
	C302.143097,41.270962 302.004700,41.984928 301.018097,43.063309 
M515.784973,28.099234 
	C516.949646,25.996172 518.114380,23.893110 519.474915,21.436422 
	C507.679840,21.436422 496.705505,21.436422 485.731201,21.436422 
	C485.420593,21.751795 485.110016,22.067169 484.799408,22.382542 
	C494.847260,29.084898 499.916077,38.620758 500.536407,50.688232 
	C501.116028,50.559258 501.695648,50.430283 502.275269,50.301304 
	C502.971710,49.097801 503.668182,47.894299 504.930634,46.268555 
	C508.376495,40.385502 511.822327,34.502449 515.784973,28.099234 
M203.770096,40.437496 
	C203.536285,43.230804 203.302490,46.024113 203.068680,48.817425 
	C203.526154,48.971481 203.983627,49.125538 204.441101,49.279594 
	C205.444870,47.573753 207.227859,45.908058 207.318161,44.155155 
	C207.719360,36.368275 207.756622,28.554964 207.663834,20.754326 
	C207.629532,17.870642 205.545563,16.948980 203.149292,18.303377 
	C199.215530,20.526785 196.541672,23.879194 196.084991,28.545219 
	C195.769989,31.763580 197.076431,33.167675 200.996231,33.975010 
	C199.009155,29.121002 199.554291,24.887833 203.771683,20.629042 
	C203.771683,27.543110 203.771683,33.519142 203.770096,40.437496 
z"/>
<path fill="#D3D2D3" opacity="1.000000" stroke="none" 
	d="
M1.000000,141.462631 
	C178.546158,141.002548 356.092316,141.006012 533.638489,140.994980 
	C535.459412,140.994873 537.280396,140.803787 539.550659,140.850922 
	C540.000000,321.358246 540.000000,501.716461 540.000000,682.537354 
	C360.641754,682.996399 181.283493,682.992859 1.462616,682.994629 
	C1.000000,502.641754 1.000000,322.283508 1.000000,141.462631 
M137.500000,143.967117 
	C94.834854,143.967133 52.169708,143.966431 9.504561,143.967880 
	C2.963948,143.968094 2.958029,143.972656 2.957989,150.389404 
	C2.956897,324.383087 2.956977,498.376740 2.957695,672.370422 
	C2.957723,679.039429 2.961673,679.042419 9.758002,679.042480 
	C183.585007,679.042969 357.412018,679.042969 531.239014,679.042419 
	C538.028564,679.042419 538.032349,679.039368 538.032349,672.367004 
	C538.033020,498.539978 538.032959,324.712952 538.032471,150.885941 
	C538.032471,143.969498 538.030029,143.967484 530.985718,143.967453 
	C400.157135,143.967010 269.328583,143.967087 137.500000,143.967117 
z"/>
<path fill="#EEECEE" opacity="1.000000" stroke="none" 
	d="
M1.000000,67.333328 
	C178.698227,67.000793 356.396454,67.001976 534.094666,66.996490 
	C535.757629,66.996437 537.420593,66.907501 539.541748,66.930031 
	C540.000000,67.444443 540.000000,67.888893 540.000000,68.666672 
	C360.640839,68.999603 181.281677,68.999207 1.461254,68.999405 
	C1.000000,68.555557 1.000000,68.111107 1.000000,67.333328 
z"/>
<path fill="#EEECEE" opacity="1.000000" stroke="none" 
	d="
M338.025085,949.970642 
	C272.027496,949.979309 206.029892,949.989929 140.032288,949.980164 
	C138.886536,949.979980 137.740814,949.734619 136.294785,949.063599 
	C135.994492,948.523560 135.976669,948.028992 135.976669,948.028992 
	C201.972366,948.020752 267.968048,948.010620 333.963745,948.020386 
	C335.110229,948.020569 336.256653,948.260803 337.704834,948.930176 
	C338.006531,949.471252 338.025085,949.970642 338.025085,949.970642 
z"/>
<path fill="#555156" opacity="1.000000" stroke="none" 
	d="
M45.179779,725.470459 
	C43.773678,726.632324 42.367596,727.794189 40.353966,728.927734 
	C39.452950,728.509644 39.159473,728.119995 39.054688,727.457397 
	C42.899456,723.572815 46.786438,720.160583 50.135994,716.283936 
	C52.658123,713.364990 51.666325,708.480713 48.687431,706.073242 
	C45.236694,703.284424 41.974815,703.650452 38.754414,707.328308 
	C38.136711,708.033752 37.924522,709.094299 37.511509,710.021912 
	C30.900888,703.114014 29.346029,702.924194 23.080406,707.094238 
	C22.628447,706.544128 22.318090,706.273621 22.007727,706.003174 
	C26.261162,700.664124 29.748959,700.339905 36.476471,704.679321 
	C38.675968,703.707886 41.066368,701.667480 43.069935,701.994812 
	C46.186039,702.503845 49.823196,703.937195 51.819687,706.220337 
	C54.805984,709.635315 54.599865,714.178650 52.022114,718.169617 
	C51.056633,719.664429 49.710533,720.913513 48.148140,722.135986 
	C46.898815,723.155151 46.039303,724.312805 45.179779,725.470459 
z"/>
<path fill="#DEDDDE" opacity="1.000000" stroke="none" 
	d="
M338.491180,949.975830 
	C338.025085,949.970642 338.006531,949.471252 338.003876,949.221069 
	C404.695068,948.977356 471.388916,948.983948 538.554321,948.992188 
	C537.137573,949.332458 535.249390,949.965881 533.360901,949.967041 
	C468.559692,950.008728 403.758484,949.990601 338.491180,949.975830 
z"/>
<path fill="#6A666B" opacity="1.000000" stroke="none" 
	d="
M91.860977,701.920532 
	C101.196373,698.663879 111.617928,707.452026 110.936745,718.060486 
	C110.630203,722.834473 110.175484,727.598938 109.725365,733.138611 
	C103.939705,733.138611 97.329941,733.138611 90.274063,732.712219 
	C89.532501,731.890015 89.237053,731.494202 89.531357,730.928345 
	C90.512497,730.638977 90.903877,730.519653 91.633781,730.367554 
	C96.927353,729.839233 101.882401,729.343811 106.602310,728.871887 
	C106.602310,726.960144 106.250191,725.113831 106.660004,723.455811 
	C109.132065,713.454651 107.871674,709.850098 99.847900,704.072754 
	C97.340965,703.226013 94.600975,702.573303 91.860977,701.920532 
z"/>
<path fill="#EEECEE" opacity="1.000000" stroke="none" 
	d="
M141.501389,701.945984 
	C148.212921,701.898193 154.924469,701.850403 161.775116,702.160461 
	C162.181747,703.235962 162.449295,703.953491 162.368332,704.739807 
	C160.588852,705.630981 158.991257,706.257568 157.755249,707.309204 
	C151.753632,712.415405 146.263794,712.524353 141.172592,705.501953 
	C141.210831,704.024048 141.356110,702.985046 141.501389,701.945984 
z"/>
<path fill="#6A666B" opacity="1.000000" stroke="none" 
	d="
M518.924866,732.971008 
	C517.807312,732.968811 516.271790,733.439392 515.643433,732.883850 
	C512.681091,730.264709 509.907776,727.420715 507.185608,724.544617 
	C505.338562,722.593201 503.749603,722.452759 501.780273,724.411194 
	C498.412689,727.760010 494.895966,730.958862 491.360565,733.747986 
	C491.339355,731.691223 491.399475,730.107178 491.772644,728.628662 
	C494.666595,726.602112 497.407684,724.633911 499.794006,722.302551 
	C504.271759,717.927734 504.377380,717.938171 508.758881,722.173462 
	C511.270905,724.601501 514.164673,726.634644 516.947754,729.235229 
	C517.647644,730.740356 518.286255,731.855713 518.924866,732.971008 
z"/>
<path fill="#DEDDDE" opacity="1.000000" stroke="none" 
	d="
M135.510376,948.022888 
	C135.976669,948.028992 135.994492,948.523560 135.997009,948.771179 
	C91.655037,949.013245 47.310547,949.007690 2.501528,948.996277 
	C3.757396,948.657776 5.477483,948.036560 7.198235,948.034668 
	C49.813480,947.988953 92.428795,948.008667 135.510376,948.022888 
z"/>
<path fill="#555156" opacity="1.000000" stroke="none" 
	d="
M91.494446,701.824158 
	C94.600975,702.573303 97.340965,703.226013 99.419426,704.063721 
	C95.274712,704.608093 91.376350,704.087769 88.388954,705.497620 
	C80.528343,709.207336 77.867691,721.821777 87.607864,729.355103 
	C87.027512,729.953369 86.794952,730.192261 86.562401,730.431213 
	C80.620155,727.215576 78.391159,721.767883 79.107018,715.575256 
	C79.915550,708.580933 83.754128,703.418945 91.494446,701.824158 
z"/>
<path fill="#6A666B" opacity="1.000000" stroke="none" 
	d="
M141.279648,705.940857 
	C146.263794,712.524353 151.753632,712.415405 157.755249,707.309204 
	C158.991257,706.257568 160.588852,705.630981 162.458191,705.036499 
	C163.120224,706.175659 163.343903,707.086731 163.172699,707.911865 
	C159.202972,709.721924 155.496094,711.417114 152.129868,713.630371 
	C151.050812,714.339844 150.872375,716.419128 150.018921,717.956726 
	C149.284012,718.326172 148.812103,718.610596 148.340210,718.895020 
	C145.226715,714.869202 142.113190,710.843323 139.275024,706.460876 
	C140.126801,706.049805 140.703217,705.995300 141.279648,705.940857 
z"/>
<path fill="#555156" opacity="1.000000" stroke="none" 
	d="
M148.342865,719.310791 
	C148.812103,718.610596 149.284012,718.326172 150.211044,718.268494 
	C151.237854,720.891174 151.809540,723.287048 152.534805,726.326538 
	C154.738342,723.033691 156.512253,720.382874 158.654602,717.788818 
	C159.518509,717.883728 160.013992,717.921753 160.509460,717.959839 
	C157.812759,722.603149 155.116043,727.246399 151.645737,733.221680 
	C150.323853,727.816345 149.334686,723.771484 148.342865,719.310791 
z"/>
<path fill="#444045" opacity="1.000000" stroke="none" 
	d="
M160.741089,717.691589 
	C160.013992,717.921753 159.518509,717.883728 158.769577,717.440063 
	C160.199936,714.022217 161.883743,711.010010 163.567566,707.997864 
	C163.343903,707.086731 163.120224,706.175659 162.806702,704.967773 
	C162.449295,703.953491 162.181747,703.235962 162.207855,702.232666 
	C164.636795,701.947021 166.772110,701.947021 169.977509,701.947021 
	C166.718826,707.547607 163.845779,712.485474 160.741089,717.691589 
z"/>
<path fill="#363237" opacity="1.000000" stroke="none" 
	d="
M491.459656,728.523132 
	C491.399475,730.107178 491.339355,731.691223 491.146881,733.609253 
	C490.404205,733.174438 489.271454,732.411377 489.262970,731.636047 
	C489.157257,721.997986 489.199646,712.358032 489.270599,702.719055 
	C489.274658,702.165527 489.854767,701.616272 490.664246,701.442627 
	C491.338348,702.422974 491.514984,703.025879 491.654053,704.051392 
	C491.564209,712.490356 491.511932,720.506775 491.459656,728.523132 
z"/>
<path fill="#6A666B" opacity="1.000000" stroke="none" 
	d="
M38.866005,727.730286 
	C39.159473,728.119995 39.452950,728.509644 40.075535,729.072266 
	C38.329617,732.413147 36.182991,732.866150 33.335636,729.921265 
	C30.487507,726.975525 27.276449,724.380676 24.549580,721.297791 
	C25.529959,720.892395 26.185257,720.821228 27.136929,720.829895 
	C28.989832,722.354553 30.361265,724.117004 32.151676,725.160461 
	C34.195049,726.351196 36.611626,726.901611 38.866005,727.730286 
z"/>
<path fill="#363237" opacity="1.000000" stroke="none" 
	d="
M518.984131,732.507507 
	C518.286255,731.855713 517.647644,730.740356 516.933472,728.777039 
	C516.809326,719.733276 516.760620,711.537537 516.757568,702.720032 
	C516.830627,701.683655 516.857910,701.268921 516.885193,700.854248 
	C517.609680,702.168274 518.935364,703.470337 518.961670,704.798157 
	C519.141479,713.877075 519.048462,722.961426 518.984131,732.507507 
z"/>
<path fill="#444045" opacity="1.000000" stroke="none" 
	d="
M26.840553,720.750061 
	C26.185257,720.821228 25.529959,720.892395 24.382523,721.012817 
	C19.395966,716.784241 18.568127,711.893188 21.721567,706.193604 
	C22.318090,706.273621 22.628447,706.544128 23.008114,707.465759 
	C21.114412,713.905273 21.990200,716.845398 26.840553,720.750061 
z"/>
<path fill="#6A666B" opacity="1.000000" stroke="none" 
	d="
M491.691620,703.628723 
	C491.514984,703.025879 491.338348,702.422974 491.075684,701.356079 
	C493.452820,700.745483 495.916016,700.598877 498.682373,700.966003 
	C498.992279,701.975952 498.998993,702.472168 498.596008,703.062439 
	C496.021423,703.313904 493.856537,703.471313 491.691620,703.628723 
z"/>
<path fill="#555156" opacity="1.000000" stroke="none" 
	d="
M499.005707,702.968384 
	C498.998993,702.472168 498.992279,701.975952 499.030090,701.110168 
	C502.732330,700.691040 506.390076,700.641479 510.536499,701.036621 
	C511.014893,701.976929 511.004547,702.472534 510.537781,703.032959 
	C506.389465,703.054688 502.697601,703.011536 499.005707,702.968384 
z"/>
<path fill="#444045" opacity="1.000000" stroke="none" 
	d="
M141.172592,705.501953 
	C140.703217,705.995300 140.126801,706.049805 139.119904,706.162354 
	C137.297348,705.436523 135.905258,704.652710 134.513168,703.868896 
	C134.923309,703.198181 135.333466,702.527466 135.743607,701.856750 
	C137.410690,701.856750 139.077789,701.856750 141.123138,701.901367 
	C141.356110,702.985046 141.210831,704.024048 141.172592,705.501953 
z"/>
<path fill="#6A666B" opacity="1.000000" stroke="none" 
	d="
M510.994171,702.968140 
	C511.004547,702.472534 511.014893,701.976929 510.988159,701.111267 
	C512.766846,700.669861 514.582520,700.598572 516.641724,700.690735 
	C516.857910,701.268921 516.830627,701.683655 516.349670,702.692261 
	C514.262085,703.180176 512.628113,703.074158 510.994171,702.968140 
z"/>
<path fill="#F8F4F8" opacity="1.000000" stroke="none" 
	d="
M45.432159,725.624817 
	C46.039303,724.312805 46.898815,723.155151 47.920330,722.335449 
	C47.283066,723.708679 46.483795,724.743896 45.432159,725.624817 
z"/>
<path fill="#7D797D" opacity="1.000000" stroke="none" 
	d="
M88.941612,731.098328 
	C89.237053,731.494202 89.532501,731.890015 89.939102,732.507385 
	C89.138626,732.326355 88.227005,731.923767 87.513687,731.228027 
	C88.121872,730.989441 88.531746,731.043884 88.941612,731.098328 
z"/>
<path fill="#555156" opacity="1.000000" stroke="none" 
	d="
M89.531372,730.928345 
	C88.531746,731.043884 88.121872,730.989441 87.402023,730.950317 
	C87.092056,730.965698 86.736473,730.787842 86.649429,730.609497 
	C86.794952,730.192261 87.027512,729.953369 87.957764,729.438782 
	C89.535408,729.575500 90.415344,729.987915 91.295273,730.400269 
	C90.903877,730.519653 90.512497,730.638977 89.531372,730.928345 
z"/>
<path fill="#DEDDDE" opacity="1.000000" stroke="none" 
	d="
M51.046825,77.590134 
	C51.838036,78.140678 52.307419,78.528397 52.776802,78.916122 
	C43.501995,75.204514 34.337639,75.728951 25.116795,78.743225 
	C33.442398,73.802025 41.999184,73.913017 51.046825,77.590134 
z"/>
<path fill="#DEDDDE" opacity="1.000000" stroke="none" 
	d="
M65.441452,94.903290 
	C64.979797,93.570740 64.686996,92.572479 64.394196,91.574226 
	C70.444878,100.445953 70.264015,109.619492 65.452080,118.931015 
	C67.076210,111.030319 69.209541,103.124260 65.441452,94.903290 
z"/>
<path fill="#DEDDDE" opacity="1.000000" stroke="none" 
	d="
M27.792488,132.827911 
	C34.869820,132.494308 42.054150,132.494308 49.238483,132.494308 
	C42.231365,135.850098 35.119152,136.122910 27.792488,132.827911 
z"/>
<path fill="#DEDDDE" opacity="1.000000" stroke="none" 
	d="
M9.021769,110.475853 
	C9.289687,104.907867 9.571073,99.778778 9.852459,94.649696 
	C10.222785,94.678993 10.593111,94.708298 10.963437,94.737595 
	C10.963437,101.869568 10.963437,109.001541 10.963437,116.618362 
	C10.278347,114.591873 9.656792,112.753311 9.021769,110.475853 
z"/>
<path fill="#DEDDDE" opacity="1.000000" stroke="none" 
	d="
M62.988304,89.623795 
	C62.679432,89.232124 62.627335,88.862602 62.575237,88.493080 
	C62.835052,88.508690 63.094864,88.524307 63.354675,88.539917 
	C63.318142,88.908592 63.281609,89.277267 62.988304,89.623795 
z"/>
<path fill="#DEDDDE" opacity="1.000000" stroke="none" 
	d="
M55.648922,81.051620 
	C55.295952,81.337074 54.925556,81.364532 54.555164,81.391998 
	C54.544941,81.131851 54.534718,80.871712 54.524498,80.611572 
	C54.893501,80.672256 55.262501,80.732941 55.648922,81.051620 
z"/>
<path fill="#DEDDDE" opacity="1.000000" stroke="none" 
	d="
M15.348890,88.496521 
	C14.905537,88.388176 14.635276,88.112564 14.389598,87.816551 
	C14.379989,87.804970 14.605547,87.598221 14.721527,87.482407 
	C14.989776,87.763504 15.258021,88.044601 15.348890,88.496521 
z"/>
<path fill="#DEDDDE" opacity="1.000000" stroke="none" 
	d="
M15.041874,122.949448 
	C15.531119,123.264229 16.020363,123.579018 16.509609,123.893799 
	C16.332432,124.099907 16.155256,124.306023 15.978083,124.512138 
	C15.664866,124.204956 15.351649,123.897774 15.020052,123.292854 
	C15.001672,122.995117 15.041875,122.949448 15.041874,122.949448 
z"/>
<path fill="#DEDDDE" opacity="1.000000" stroke="none" 
	d="
M57.961365,83.046829 
	C57.827072,82.870384 57.692780,82.693939 57.558487,82.517494 
	C57.673149,82.561028 57.787811,82.604568 57.950249,82.826370 
	C57.998028,83.004639 57.961365,83.046829 57.961365,83.046829 
z"/>
<path fill="#DEDDDE" opacity="1.000000" stroke="none" 
	d="
M58.953575,84.055901 
	C58.615292,83.974815 58.349178,83.789902 58.058304,83.273994 
	C57.961365,83.046829 57.998028,83.004639 58.019379,82.985535 
	C58.368263,83.059631 58.634571,83.242157 58.919090,83.759506 
	C58.998528,84.004997 58.953575,84.055901 58.953575,84.055901 
z"/>
<path fill="#DEDDDE" opacity="1.000000" stroke="none" 
	d="
M59.954063,85.055428 
	C59.616776,84.975098 59.350536,84.791672 59.054462,84.280533 
	C58.953575,84.055901 58.998528,84.004997 59.024372,83.981613 
	C59.376270,84.054855 59.640118,84.240089 59.920166,84.759430 
	C59.998577,85.004936 59.954063,85.055428 59.954063,85.055428 
z"/>
<path fill="#DEDDDE" opacity="1.000000" stroke="none" 
	d="
M60.962784,86.045067 
	C60.623085,85.970978 60.354660,85.790764 60.055786,85.279922 
	C59.954063,85.055428 59.998577,85.004936 60.024212,84.981789 
	C60.376301,85.056084 60.638161,85.243683 60.916954,85.762802 
	C60.998486,86.004166 60.962784,86.045067 60.962784,86.045067 
z"/>
<path fill="#DEDDDE" opacity="1.000000" stroke="none" 
	d="
M61.018799,85.986160 
	C61.161366,86.148903 61.283619,86.329651 61.405876,86.510399 
	C61.298786,86.460434 61.191696,86.410469 61.023697,86.202789 
	C60.962784,86.045067 60.998486,86.004166 61.018799,85.986160 
z"/>
<path fill="#DEDDDE" opacity="1.000000" stroke="none" 
	d="
M12.551661,92.579330 
	C12.468629,92.641472 12.441146,92.403786 12.441146,92.403786 
	C12.441146,92.403786 12.634691,92.517197 12.551661,92.579330 
z"/>
<path fill="#DEDDDE" opacity="1.000000" stroke="none" 
	d="
M13.445393,90.414749 
	C13.527465,90.352562 13.555438,90.588768 13.555438,90.588768 
	C13.555438,90.588768 13.363320,90.476944 13.445393,90.414749 
z"/>
<path fill="#DEDDDE" opacity="1.000000" stroke="none" 
	d="
M51.566826,131.582031 
	C51.479786,131.638382 51.440548,131.417557 51.440548,131.417557 
	C51.440548,131.417557 51.653862,131.525681 51.566826,131.582031 
z"/>
<path fill="#DEDDDE" opacity="1.000000" stroke="none" 
	d="
M12.442387,118.417961 
	C12.525895,118.355316 12.555007,118.593727 12.555007,118.593727 
	C12.555007,118.593727 12.358878,118.480606 12.442387,118.417961 
z"/>
<path fill="#DEDDDE" opacity="1.000000" stroke="none" 
	d="
M13.424410,120.560715 
	C13.368590,120.473755 13.589523,120.436310 13.589523,120.436310 
	C13.589523,120.436310 13.480230,120.647675 13.424410,120.560715 
z"/>
<path fill="#DEDDDE" opacity="1.000000" stroke="none" 
	d="
M14.979000,123.015404 
	C14.835388,122.853249 14.714449,122.670815 14.593510,122.488373 
	C14.701085,122.537598 14.808661,122.586830 14.979056,122.792755 
	C15.041875,122.949448 15.001672,122.995117 14.979000,123.015404 
z"/>
<path fill="#DEDDDE" opacity="1.000000" stroke="none" 
	d="
M20.964657,129.043671 
	C20.837614,128.860535 20.710571,128.677414 20.583529,128.494278 
	C20.698120,128.540192 20.812714,128.586105 20.966185,128.815079 
	C21.005064,128.998138 20.964655,129.043671 20.964657,129.043671 
z"/>
<path fill="#DEDDDE" opacity="1.000000" stroke="none" 
	d="
M21.027836,128.977936 
	C21.180258,129.132095 21.309908,129.306473 21.439556,129.480835 
	C21.328674,129.437134 21.217794,129.393448 21.035786,129.196716 
	C20.964655,129.043671 21.005064,128.998138 21.027836,128.977936 
z"/>
<path fill="#DEDDDE" opacity="1.000000" stroke="none" 
	d="
M55.571106,129.438141 
	C55.629681,129.519989 55.402718,129.548462 55.402718,129.548462 
	C55.402718,129.548462 55.512527,129.356293 55.571106,129.438141 
z"/>
<path fill="#DEDDDE" opacity="1.000000" stroke="none" 
	d="
M23.418941,130.552048 
	C23.357098,130.469193 23.593555,130.441284 23.593555,130.441284 
	C23.593555,130.441284 23.480783,130.634903 23.418941,130.552048 
z"/>
<path fill="#DEDDDE" opacity="1.000000" stroke="none" 
	d="
M53.439865,130.422302 
	C53.526653,130.367004 53.564568,130.586075 53.564568,130.586075 
	C53.564568,130.586075 53.353077,130.477585 53.439865,130.422302 
z"/>
<path fill="#DEDDDE" opacity="1.000000" stroke="none" 
	d="
M25.561188,131.580750 
	C25.473349,131.637146 25.434307,131.414902 25.434307,131.414902 
	C25.434307,131.414902 25.649025,131.524353 25.561188,131.580750 
z"/>
<path fill="#363237" opacity="1.000000" stroke="none" 
	d="
M101.001862,988.892456 
	C100.988548,996.007568 96.461464,999.089783 90.334236,996.347107 
	C89.383087,995.921387 88.659088,994.027100 88.589943,992.770020 
	C88.371368,988.796509 88.391441,984.797180 88.582863,980.820557 
	C88.649246,979.441467 89.153816,977.816895 90.027710,976.788208 
	C94.424583,971.612427 99.009720,966.596619 104.836281,960.056946 
	C110.892479,966.791260 116.367332,971.776550 120.329292,977.763062 
	C122.229591,980.634583 121.497879,985.398804 121.516144,989.307922 
	C121.526932,991.617493 121.208138,995.568604 120.106400,995.928162 
	C117.105209,996.907593 113.600548,996.505737 110.316887,996.303101 
	C109.752975,996.268250 109.030128,994.567688 108.850945,993.553467 
	C108.594643,992.102722 109.220726,990.373779 108.660873,989.126892 
	C107.763458,987.128235 106.202972,985.427307 104.922707,983.600586 
	C103.617348,985.214172 102.312004,986.827759 101.001862,988.892456 
z"/>
<path fill="#6A666B" opacity="1.000000" stroke="none" 
	d="
M441.447296,985.424927 
	C438.452942,988.084778 435.927551,990.815063 432.915771,992.811646 
	C431.587677,993.692078 428.666565,993.880127 427.513611,993.005371 
	C423.431732,989.908264 419.623077,986.389282 416.046814,982.704224 
	C412.104858,978.642151 411.689392,972.546021 414.621674,968.565430 
	C417.898163,964.117554 422.298920,963.400513 428.280823,966.187561 
	C429.162506,966.598267 430.462769,966.807495 431.317139,966.470520 
	C438.478485,963.645569 442.774750,964.309204 445.714478,968.891479 
	C448.713654,973.566406 447.651825,979.162231 442.808075,984.174194 
	C442.462311,984.531982 442.082489,984.856812 441.447296,985.424927 
M434.642395,967.868103 
	C433.079132,969.247681 431.515839,970.627319 429.968445,971.992859 
	C424.578400,966.489929 421.425720,965.767395 418.060181,969.097839 
	C414.544464,972.576782 415.025909,977.851257 419.569489,982.304565 
	C422.856476,985.526245 426.441254,988.444031 430.277740,991.837463 
	C434.738617,987.518616 439.269592,983.970398 442.603424,979.524536 
	C444.105103,977.521912 444.085022,973.432007 443.192261,970.824280 
	C442.123169,967.701294 438.921997,966.313538 434.642395,967.868103 
z"/>
<path fill="#6A666B" opacity="1.000000" stroke="none" 
	d="
M224.103149,972.145508 
	C224.030060,975.782104 224.550827,979.285461 223.485886,982.211731 
	C222.395950,985.206604 222.475571,986.984985 224.874756,989.048096 
	C227.061600,990.928711 228.871475,993.247742 230.847519,995.373535 
	C230.440460,995.863892 230.033401,996.354187 229.626358,996.844543 
	C228.066010,995.606262 226.395615,994.482117 224.968246,993.105896 
	C222.002014,990.245911 219.869781,987.559204 214.519562,990.082214 
	C207.583557,993.353027 199.231400,988.570801 196.841385,981.490662 
	C194.305786,973.979248 197.626358,966.446106 204.860397,963.298157 
	C212.384689,960.023987 219.943008,963.365051 224.103149,972.145508 
M214.435425,987.366943 
	C220.336899,984.249451 223.039230,979.381470 221.759476,974.173218 
	C220.237823,967.980347 214.128235,963.876587 208.224152,965.081421 
	C202.121384,966.326904 197.979034,972.392151 199.048309,978.516785 
	C200.235382,985.316162 205.979370,988.880493 214.435425,987.366943 
z"/>
<path fill="#6A666B" opacity="1.000000" stroke="none" 
	d="
M313.953064,996.479553 
	C307.412903,995.260925 304.687683,992.466736 304.347046,986.029480 
	C304.112274,981.592346 304.108459,977.118408 304.383759,972.684692 
	C304.768311,966.491211 307.596130,963.542175 313.596710,963.269287 
	C313.982819,964.050903 313.977386,964.432800 313.634186,964.946167 
	C308.649963,966.293152 307.016754,969.544983 307.120453,974.059998 
	C307.193085,977.222046 307.309540,980.400452 307.082977,983.548218 
	C306.697021,988.910217 308.586731,992.612976 313.980377,994.513672 
	C313.972168,995.430664 313.962616,995.955139 313.953064,996.479553 
z"/>
<path fill="#7D797D" opacity="1.000000" stroke="none" 
	d="
M314.321472,996.647156 
	C313.962616,995.955139 313.972168,995.430664 314.446350,994.467896 
	C319.629425,994.107727 324.347839,994.185974 329.084351,994.633606 
	C329.086945,995.496521 329.071442,995.990173 329.055939,996.483765 
	C324.267273,996.594116 319.478577,996.704407 314.321472,996.647156 
z"/>
<path fill="#7D797D" opacity="1.000000" stroke="none" 
	d="
M313.971954,964.814697 
	C313.977386,964.432800 313.982819,964.050903 313.985962,963.382568 
	C318.682068,963.046082 323.380524,962.995972 328.645081,963.229492 
	C329.487518,963.967834 329.763794,964.422546 329.573486,964.935181 
	C324.061920,964.933716 319.016937,964.874207 313.971954,964.814697 
z"/>
<path fill="#7D797D" opacity="1.000000" stroke="none" 
	d="
M338.425629,971.516479 
	C338.586273,976.645630 338.746918,981.774780 338.552765,986.701904 
	C338.273834,981.505432 338.349731,976.510925 338.425629,971.516479 
z"/>
<path fill="#555156" opacity="1.000000" stroke="none" 
	d="
M338.419495,971.162354 
	C338.349731,976.510925 338.273834,981.505432 338.307770,986.995178 
	C338.313354,988.141113 338.209106,988.791809 337.597168,989.328247 
	C336.827118,988.964966 336.564728,988.715942 336.320099,988.035339 
	C335.945984,981.019958 335.554077,974.436157 335.535431,967.460327 
	C336.149811,966.799683 336.390900,966.531067 336.632019,966.262512 
	C337.225830,967.777710 337.819611,969.292969 338.419495,971.162354 
z"/>
<path fill="#555156" opacity="1.000000" stroke="none" 
	d="
M330.040070,964.877197 
	C329.763794,964.422546 329.487518,963.967834 329.110779,963.266174 
	C329.445557,962.905579 329.880829,962.792053 330.859589,963.066772 
	C332.085754,963.522888 332.768463,963.590637 333.451141,963.658325 
	C334.422333,964.348328 335.393555,965.038330 336.498413,965.995422 
	C336.390900,966.531067 336.149811,966.799683 335.274414,967.259888 
	C333.106781,966.593384 331.573425,965.735291 330.040070,964.877197 
z"/>
<path fill="#555156" opacity="1.000000" stroke="none" 
	d="
M329.431091,996.468445 
	C329.071442,995.990173 329.086945,995.496521 329.419189,994.502747 
	C330.869537,993.669739 332.003143,993.336975 333.477661,993.385376 
	C334.049561,994.017212 334.280609,994.267944 334.511658,994.518677 
	C332.943207,995.163513 331.374725,995.808289 329.431091,996.468445 
z"/>
<path fill="#7D797D" opacity="1.000000" stroke="none" 
	d="
M333.316711,963.449463 
	C332.768463,963.590637 332.085754,963.522888 331.189209,963.170715 
	C331.710968,963.004395 332.446625,963.122498 333.316711,963.449463 
z"/>
<path fill="#555156" opacity="1.000000" stroke="none" 
	d="
M337.445892,989.623169 
	C337.593750,990.642639 337.385254,991.252930 336.663818,991.623535 
	C335.922668,991.110168 335.694458,990.836548 335.511536,990.280273 
	C335.805267,989.487488 336.053802,988.977234 336.302338,988.466980 
	C336.564728,988.715942 336.827118,988.964966 337.445892,989.623169 
z"/>
<path fill="#555156" opacity="1.000000" stroke="none" 
	d="
M336.417969,991.846802 
	C336.455780,992.701660 336.226440,993.093445 335.426758,993.205627 
	C334.608521,992.682678 334.360626,992.439331 334.230347,991.952881 
	C334.720734,991.327576 335.093506,990.945251 335.466309,990.562866 
	C335.694458,990.836548 335.922668,991.110168 336.417969,991.846802 
z"/>
<path fill="#555156" opacity="1.000000" stroke="none" 
	d="
M335.210876,993.307983 
	C335.446533,993.993713 335.243561,994.223083 334.734070,994.448242 
	C334.280609,994.267944 334.049561,994.017212 333.644409,993.256165 
	C333.675293,992.551819 333.889465,992.368530 334.112732,992.195923 
	C334.360626,992.439331 334.608521,992.682678 335.210876,993.307983 
z"/>
<path fill="#3D393E" opacity="1.000000" stroke="none" 
	d="
M230.783798,36.031578 
	C231.262100,32.567314 228.941833,27.450352 236.457413,27.513813 
	C236.124405,29.463896 235.842590,31.114183 235.610962,32.470543 
	C237.903397,34.499336 240.232956,36.560982 243.066864,39.068970 
	C243.440613,35.449650 243.861816,31.370829 244.281876,27.302946 
	C242.244308,26.724640 240.765594,26.304951 239.286896,25.885262 
	C239.222626,25.506645 239.158340,25.128031 239.094070,24.749414 
	C240.604614,24.156668 242.115158,23.563919 243.820938,22.894554 
	C244.132019,21.417690 244.493347,19.702204 244.854691,17.986715 
	C245.355728,17.795185 245.856766,17.603655 246.357819,17.412125 
	C247.409973,19.311096 248.462128,21.210066 249.850586,23.716022 
	C250.697159,23.919283 252.448563,24.339785 254.199951,24.760286 
	C254.185318,25.174099 254.170685,25.587912 254.156036,26.001724 
	C252.501404,26.332691 250.846756,26.663658 248.776154,27.077827 
	C248.776154,32.199516 248.776154,37.395111 248.776154,42.902054 
	C253.155884,42.090252 253.144516,38.789158 253.568771,36.052696 
	C254.843491,27.830730 257.278992,25.917767 265.063507,27.932980 
	C266.044128,28.186842 267.048981,30.317253 267.145355,31.643444 
	C267.423737,35.473858 267.243805,39.337585 267.243805,43.188232 
	C267.994965,43.285995 268.746124,43.383755 269.497284,43.481518 
	C269.974518,42.037994 270.588989,40.623203 270.898499,39.144577 
	C271.438202,36.566216 271.411957,33.808857 272.309204,31.380056 
	C273.656494,27.733036 281.345428,25.737043 284.043915,28.390200 
	C285.057831,29.387102 284.789398,31.729607 285.022125,33.469807 
	C285.346252,35.893944 285.592010,38.328564 286.436890,40.550198 
	C285.972168,43.851887 285.599182,47.169884 285.015991,50.450512 
	C284.471985,53.510639 285.317108,57.462036 280.195374,57.904675 
	C280.545471,54.931946 281.294891,52.214355 282.153656,49.100166 
	C279.299774,49.983891 277.673767,50.487396 276.047760,50.990898 
	C276.486023,49.822041 276.924286,48.653187 277.369629,47.465462 
	C275.816284,46.702412 274.069061,45.844109 271.701385,44.681007 
	C269.606323,46.013672 266.610291,47.980038 264.107452,43.318138 
	C260.323151,46.907345 256.747345,47.901222 253.844559,42.761047 
	C248.822800,47.778690 247.345276,47.535110 243.632980,41.039494 
	C240.522186,45.194923 236.858047,47.864304 231.058868,44.856644 
	C231.628479,43.771774 232.550568,43.097473 233.582413,42.780586 
	C234.560745,42.480133 236.444290,42.783016 236.549194,42.420773 
	C236.868164,41.319321 236.987381,39.438763 236.338684,38.920868 
	C234.738251,37.643147 232.666229,36.956089 230.783798,36.031578 
M263.496765,34.092216 
	C262.322296,32.862419 261.147858,31.632622 259.973419,30.402834 
	C259.070923,33.558212 257.884644,36.673885 257.434265,39.892529 
	C257.294342,40.892624 259.149445,42.171864 260.091217,43.323303 
	C261.211121,41.326393 262.412231,39.368660 263.405182,37.310524 
	C263.735779,36.625328 263.532867,35.682747 263.496765,34.092216 
M275.054565,39.254818 
	C275.940948,40.603519 276.827362,41.952217 277.713745,43.300919 
	C278.673615,42.082554 280.352081,40.917171 280.446625,39.635002 
	C280.655487,36.802364 280.110718,33.904789 279.709045,31.056883 
	C279.681244,30.859797 277.699799,30.622471 277.633240,30.794121 
	C276.667572,33.284203 275.873993,35.841030 275.054565,39.254818 
z"/>
<path fill="#EEECEE" opacity="1.000000" stroke="none" 
	d="
M21.492371,23.942461 
	C21.492369,23.942461 21.500191,23.999899 21.433151,24.466784 
	C23.704134,24.285879 26.074394,23.732197 28.365427,22.947260 
	C29.382750,22.598711 30.167112,21.462326 31.181849,21.231539 
	C38.049252,19.669670 42.167732,25.592180 47.732845,27.634632 
	C48.474899,27.906971 48.682945,30.293694 48.718109,31.711670 
	C48.833195,36.352482 48.754196,40.998108 48.482315,45.870262 
	C45.474598,47.291386 42.823956,49.129158 39.973095,49.525024 
	C35.744911,50.112141 31.374859,49.678516 27.065197,49.677689 
	C21.359888,49.676590 18.903589,47.512253 19.247923,41.667938 
	C19.597420,35.735958 20.712549,29.849089 21.492371,23.942461 
M25.385134,37.287239 
	C26.267534,42.235653 29.430304,45.164585 34.227036,45.087738 
	C38.263298,45.023079 41.402283,42.578938 42.100517,38.131012 
	C42.802979,33.656178 40.104763,29.624144 35.922951,28.720001 
	C30.699646,27.590679 27.070553,30.279234 25.385134,37.287239 
z"/>
<path fill="#3D393E" opacity="1.000000" stroke="none" 
	d="
M316.078308,42.820457 
	C320.316010,44.216492 319.904968,40.668045 320.125305,38.587349 
	C320.487915,35.163265 320.223602,31.672787 320.223602,27.047800 
	C322.338715,28.102160 323.677094,28.769320 325.217377,29.537130 
	C329.352600,26.392103 330.483337,26.815355 332.326477,33.216354 
	C332.943542,31.917370 333.303345,30.986605 333.808563,30.142899 
	C334.368347,29.208023 335.061066,28.352711 335.987122,27.054480 
	C342.523499,32.447659 335.740967,40.701801 341.209656,45.827122 
	C334.751801,44.064304 336.248474,38.969418 335.760284,33.652309 
	C334.951111,35.572567 334.399750,36.589436 334.096954,37.675598 
	C333.741760,38.949688 333.773315,40.347340 333.318512,41.573174 
	C332.919159,42.649529 332.079681,43.562599 331.434631,44.547798 
	C330.536133,43.545815 329.139679,42.672386 328.841034,41.515545 
	C328.184387,38.971889 328.082581,36.285000 326.723114,33.444412 
	C325.963654,37.524719 325.204163,41.605026 324.429871,45.764839 
	C321.447540,45.764839 318.230957,45.764839 315.138062,45.288578 
	C315.533936,44.148365 315.806122,43.484413 316.078308,42.820457 
z"/>
<path fill="#444045" opacity="1.000000" stroke="none" 
	d="
M453.988434,48.983551 
	C451.176849,50.004822 448.431366,51.561512 445.537781,51.918861 
	C441.443481,52.424500 437.237030,52.141075 433.083710,52.018902 
	C428.045105,51.870686 424.844818,48.579361 424.711334,43.505913 
	C424.628265,40.349060 424.907257,37.173412 424.678619,34.031319 
	C423.864014,22.835676 428.965515,21.503757 436.359650,20.745594 
	C436.191162,19.592892 436.027710,18.438131 435.730743,16.340084 
	C437.708923,17.954372 438.936432,18.956059 440.235321,20.016026 
	C441.646667,18.962835 442.926575,18.007729 444.950012,16.497766 
	C444.779968,18.514994 444.678650,19.716549 444.574738,20.949432 
	C445.612671,21.013121 446.606873,21.074123 447.883911,21.565990 
	C448.050598,22.450247 447.934448,22.903637 447.371826,23.298397 
	C443.093872,23.212524 439.257660,23.051893 435.432037,23.188463 
	C429.282440,23.407993 427.010040,25.728649 426.882355,31.775608 
	C426.801453,35.605549 426.467926,39.508949 427.076782,43.244267 
	C427.426361,45.388905 429.211761,48.781517 430.729523,49.001690 
	C437.981110,50.053608 445.486420,51.854431 452.772583,47.780937 
	C453.382782,48.292690 453.685608,48.638119 453.988434,48.983551 
z"/>
<path fill="#444045" opacity="1.000000" stroke="none" 
	d="
M203.770889,39.966339 
	C203.771683,33.519142 203.771683,27.543110 203.771683,20.629042 
	C199.554291,24.887833 199.009155,29.121002 200.996231,33.975010 
	C197.076431,33.167675 195.769989,31.763580 196.084991,28.545219 
	C196.541672,23.879194 199.215530,20.526785 203.149292,18.303377 
	C205.545563,16.948980 207.629532,17.870642 207.663834,20.754326 
	C207.756622,28.554964 207.719360,36.368275 207.318161,44.155155 
	C207.227859,45.908058 205.444870,47.573753 204.441101,49.279594 
	C203.983627,49.125538 203.526154,48.971481 203.068680,48.817425 
	C203.302490,46.024113 203.536285,43.230804 203.770889,39.966339 
z"/>
<path fill="#444045" opacity="1.000000" stroke="none" 
	d="
M504.364655,46.690796 
	C503.668182,47.894299 502.971710,49.097801 502.275269,50.301304 
	C501.695648,50.430283 501.116028,50.559258 500.536407,50.688232 
	C499.916077,38.620758 494.847260,29.084898 484.799408,22.382542 
	C485.110016,22.067169 485.420593,21.751795 485.731201,21.436422 
	C496.705505,21.436422 507.679840,21.436422 519.474915,21.436422 
	C518.114380,23.893110 516.949646,25.996172 515.352661,28.009600 
	C514.497803,27.631229 514.075256,27.342495 513.536865,26.940220 
	C513.270020,26.671158 513.127686,26.508165 512.899719,26.059214 
	C512.317749,25.515654 511.829926,25.250582 511.226562,24.922379 
	C511.111053,24.859249 510.879272,24.983986 511.085541,24.754940 
	C511.526154,24.291862 511.775024,24.069830 511.985046,23.815695 
	C512.040222,23.748917 511.975281,23.476994 511.965118,23.476973 
	C504.823425,23.461941 497.681702,23.462091 490.284058,23.462091 
	C493.085785,26.548512 495.526459,29.237226 497.936401,31.892067 
	C500.474976,30.640364 502.527893,29.628138 504.875244,28.787037 
	C505.446259,29.305038 505.722778,29.651913 505.748718,30.250370 
	C500.006836,32.128803 498.491882,35.500523 500.927460,40.711216 
	C501.327911,41.568016 501.112732,42.772404 501.631958,43.491138 
	C501.937042,43.913429 503.129791,43.694462 503.960968,44.256187 
	C504.120667,45.395889 504.242676,46.043346 504.364655,46.690796 
z"/>
<path fill="#363237" opacity="1.000000" stroke="none" 
	d="
M316.064789,42.365139 
	C315.806122,43.484413 315.533936,44.148365 314.949829,45.006847 
	C313.289398,44.848526 311.940857,44.495678 310.293518,43.687618 
	C310.550812,39.787540 311.251129,36.355274 311.554230,32.888287 
	C311.623596,32.094601 310.196747,30.401306 309.681549,30.485575 
	C308.612640,30.660416 306.914276,31.684242 306.847900,32.474403 
	C306.567108,35.816727 306.653076,39.214333 306.969299,42.557266 
	C307.019623,43.089462 308.932129,43.445511 309.983734,43.882996 
	C307.366669,47.080967 307.133392,47.095985 302.389587,43.927574 
	C301.960724,43.238083 301.913483,42.968491 301.866272,42.698895 
	C302.004700,41.984928 302.143097,41.270962 302.570312,39.867798 
	C302.806915,37.557453 302.754700,35.936306 302.702454,34.315155 
	C303.746185,27.956039 308.819824,25.230124 314.490479,28.197874 
	C315.322571,28.633343 315.822693,30.330757 315.891571,31.479349 
	C316.099487,34.946899 316.019196,38.431728 316.064789,42.365139 
z"/>
<path fill="#444045" opacity="1.000000" stroke="none" 
	d="
M301.442200,42.881104 
	C301.913483,42.968491 301.960724,43.238083 302.059937,43.914978 
	C298.743042,47.036636 295.755249,46.488602 294.935974,42.475777 
	C294.270233,39.214836 294.800751,35.709660 294.800751,32.312798 
	C294.351410,32.054703 293.902100,31.796612 293.452759,31.538519 
	C291.827332,33.609348 290.201874,35.680176 289.126587,37.050102 
	C288.846436,35.519222 288.217621,33.324280 288.125397,31.107012 
	C288.071381,29.809025 288.587006,28.218473 289.428162,27.282112 
	C289.773163,26.898037 291.672485,27.836617 292.822357,28.282780 
	C293.332123,28.480574 293.839386,29.329403 294.173920,29.239056 
	C300.740448,27.465584 298.755066,31.538717 298.552734,35.068134 
	C298.394958,37.820080 296.135712,41.698517 301.442200,42.881104 
z"/>
<path fill="#555156" opacity="1.000000" stroke="none" 
	d="
M21.110935,23.953609 
	C20.712549,29.849089 19.597420,35.735958 19.247923,41.667938 
	C18.903589,47.512253 21.359888,49.676590 27.065197,49.677689 
	C31.374859,49.678516 35.744911,50.112141 39.973095,49.525024 
	C42.823956,49.129158 45.474598,47.291386 48.650486,46.160133 
	C49.428406,46.498100 49.770653,46.774574 50.112896,47.051048 
	C47.911514,48.378242 45.788292,50.662537 43.493824,50.849903 
	C37.079166,51.373741 30.593189,50.981945 24.136303,51.046211 
	C19.969452,51.087681 17.223719,48.854202 16.813948,45.080544 
	C16.245922,39.849495 16.287012,34.478237 16.813303,29.241989 
	C17.001392,27.370611 19.361036,25.717495 21.110935,23.953609 
z"/>
<path fill="#444045" opacity="1.000000" stroke="none" 
	d="
M50.411804,46.746899 
	C49.770653,46.774574 49.428406,46.498100 48.917992,45.931755 
	C48.754196,40.998108 48.833195,36.352482 48.718109,31.711670 
	C48.682945,30.293694 48.474899,27.906971 47.732845,27.634632 
	C42.167732,25.592180 38.049252,19.669670 31.181849,21.231539 
	C30.167112,21.462326 29.382750,22.598711 28.365427,22.947260 
	C26.074394,23.732197 23.704134,24.285879 21.417461,24.443230 
	C26.213739,22.725594 29.321327,17.062994 35.116173,18.796034 
	C37.215652,19.423918 39.207600,20.442314 41.198212,21.388550 
	C42.034992,21.786312 42.665318,22.685520 43.518566,22.970947 
	C50.762646,25.394239 51.076885,25.717588 51.030746,33.013298 
	C51.002434,37.490280 50.822536,41.966301 50.411804,46.746899 
z"/>
<path fill="#444045" opacity="1.000000" stroke="none" 
	d="
M227.009201,45.004524 
	C223.104935,47.626331 221.571671,45.711521 221.334412,41.882160 
	C221.152832,38.951347 221.298294,36.000267 220.391251,32.581947 
	C219.627823,33.620049 218.864410,34.658146 217.428558,35.860249 
	C216.186279,35.314686 215.616409,34.605114 215.046539,33.895542 
	C216.328613,32.315384 217.406815,30.479073 218.961594,29.241529 
	C220.071930,28.357746 221.949814,27.729120 223.242340,28.029980 
	C224.119858,28.234234 224.957962,30.188604 225.148224,31.459898 
	C225.661606,34.890224 225.818893,38.373844 226.833435,41.936913 
	C227.369324,43.026512 227.189255,44.015518 227.009201,45.004524 
z"/>
<path fill="#E75966" opacity="1.000000" stroke="none" 
	d="
M447.818298,23.357025 
	C447.934448,22.903637 448.050598,22.450247 448.256897,21.656155 
	C451.554993,19.890676 455.007324,18.396250 457.762238,21.658895 
	C460.246490,24.601084 459.410492,27.755417 456.280640,30.728157 
	C455.152527,31.276310 454.544983,31.533541 453.642639,31.608498 
	C448.598236,30.728180 447.569794,27.480129 447.818298,23.357025 
z"/>
<path fill="#363237" opacity="1.000000" stroke="none" 
	d="
M215.096283,33.496342 
	C215.616409,34.605114 216.186279,35.314686 217.142883,36.079124 
	C216.621597,39.436790 215.713577,42.739586 214.805115,46.043991 
	C211.034515,44.927448 210.535370,41.527946 211.971634,28.124985 
	C215.081787,28.391481 215.081787,28.391481 215.096283,33.496342 
z"/>
<path fill="#D3D2D3" opacity="1.000000" stroke="none" 
	d="
M275.693115,51.041077 
	C277.673767,50.487396 279.299774,49.983891 282.153656,49.100166 
	C281.294891,52.214355 280.545471,54.931946 279.823059,58.068321 
	C276.962311,60.501690 274.143036,59.562462 273.018372,56.894733 
	C272.442627,55.529003 274.481384,53.061047 275.693115,51.041077 
z"/>
<path fill="#D3D2D3" opacity="1.000000" stroke="none" 
	d="
M227.379501,45.005371 
	C227.189255,44.015518 227.369324,43.026512 227.247665,41.911263 
	C228.001251,39.886082 229.056549,37.987144 230.447830,36.059895 
	C232.666229,36.956089 234.738251,37.643147 236.338684,38.920868 
	C236.987381,39.438763 236.868164,41.319321 236.549194,42.420773 
	C236.444290,42.783016 234.560745,42.480133 233.582413,42.780586 
	C232.550568,43.097473 231.628479,43.771774 230.679169,44.689690 
	C229.716537,45.061710 228.733170,45.033966 227.379501,45.005371 
z"/>
<path fill="#555156" opacity="1.000000" stroke="none" 
	d="
M504.647644,46.479675 
	C504.242676,46.043346 504.120667,45.395889 504.028137,43.923454 
	C507.255981,37.750237 510.454346,32.401997 513.652710,27.053761 
	C514.075256,27.342495 514.497803,27.631229 515.094238,28.269680 
	C511.822327,34.502449 508.376495,40.385502 504.647644,46.479675 
z"/>
<path fill="#6A666B" opacity="1.000000" stroke="none" 
	d="
M453.937378,31.790768 
	C454.544983,31.533541 455.152527,31.276310 456.015137,31.027489 
	C455.727875,36.911118 455.185547,42.786335 454.315826,48.822548 
	C453.685608,48.638119 453.382782,48.292690 452.887878,47.385838 
	C453.109680,41.813198 453.523529,36.801983 453.937378,31.790768 
z"/>
<path fill="#444045" opacity="1.000000" stroke="none" 
	d="
M302.473877,34.564674 
	C302.754700,35.936306 302.806915,37.557453 302.649109,39.510796 
	C302.374481,38.166721 302.309875,36.490459 302.473877,34.564674 
z"/>
<path fill="#F3F3F3" opacity="1.000000" stroke="none" 
	d="
M138.000000,143.967072 
	C269.328583,143.967087 400.157135,143.967010 530.985718,143.967453 
	C538.030029,143.967484 538.032471,143.969498 538.032471,150.885941 
	C538.032959,324.712952 538.033020,498.539978 538.032349,672.367004 
	C538.032349,679.039368 538.028564,679.042419 531.239014,679.042419 
	C357.412018,679.042969 183.585007,679.042969 9.758002,679.042480 
	C2.961673,679.042419 2.957723,679.039429 2.957695,672.370422 
	C2.956977,498.376740 2.956897,324.383087 2.957989,150.389404 
	C2.958029,143.972656 2.963948,143.968094 9.504561,143.967880 
	C52.169708,143.966431 94.834854,143.967133 138.000000,143.967072 
z"/>
<path fill="#F8F4F8" opacity="1.000000" stroke="none" 
	d="
M27.136929,720.829895 
	C21.990200,716.845398 21.114412,713.905273 23.149719,707.745361 
	C29.346029,702.924194 30.900888,703.114014 37.511509,710.021912 
	C37.924522,709.094299 38.136711,708.033752 38.754414,707.328308 
	C41.974815,703.650452 45.236694,703.284424 48.687431,706.073242 
	C51.666325,708.480713 52.658123,713.364990 50.135994,716.283936 
	C46.786438,720.160583 42.899456,723.572815 39.054688,727.457397 
	C36.611626,726.901611 34.195049,726.351196 32.151676,725.160461 
	C30.361265,724.117004 28.989832,722.354553 27.136929,720.829895 
z"/>
<path fill="#FDF9FD" opacity="1.000000" stroke="none" 
	d="
M91.633789,730.367493 
	C90.415344,729.987915 89.535408,729.575500 88.305565,729.079346 
	C77.867691,721.821777 80.528343,709.207336 88.388954,705.497620 
	C91.376350,704.087769 95.274712,704.608093 99.186356,704.257812 
	C107.871674,709.850098 109.132065,713.454651 106.660004,723.455811 
	C106.250191,725.113831 106.602310,726.960144 106.602310,728.871887 
	C101.882401,729.343811 96.927353,729.839233 91.633789,730.367493 
z"/>
<path fill="#F8F4F8" opacity="1.000000" stroke="none" 
	d="
M510.537781,703.032959 
	C512.628113,703.074158 514.262085,703.180176 516.303955,703.313965 
	C516.760620,711.537537 516.809326,719.733276 516.872253,728.387329 
	C514.164673,726.634644 511.270905,724.601501 508.758881,722.173462 
	C504.377380,717.938171 504.271759,717.927734 499.794006,722.302551 
	C497.407684,724.633911 494.666595,726.602112 491.772675,728.628662 
	C491.511932,720.506775 491.564209,712.490356 491.654053,704.051392 
	C493.856537,703.471313 496.021423,703.313904 498.596008,703.062439 
	C502.697601,703.011536 506.389465,703.054688 510.537781,703.032959 
z"/>
<path fill="#EEECEE" opacity="1.000000" stroke="none" 
	d="
M163.172684,707.911865 
	C161.883743,711.010010 160.199936,714.022217 158.401138,717.383179 
	C156.512253,720.382874 154.738342,723.033691 152.534805,726.326538 
	C151.809540,723.287048 151.237854,720.891174 150.474030,718.183472 
	C150.872375,716.419128 151.050812,714.339844 152.129868,713.630371 
	C155.496094,711.417114 159.202972,709.721924 163.172684,707.911865 
z"/>
<path fill="#F8F4F8" opacity="1.000000" stroke="none" 
	d="
M434.977112,967.699585 
	C438.921997,966.313538 442.123169,967.701294 443.192261,970.824280 
	C444.085022,973.432007 444.105103,977.521912 442.603424,979.524536 
	C439.269592,983.970398 434.738617,987.518616 430.277740,991.837463 
	C426.441254,988.444031 422.856476,985.526245 419.569489,982.304565 
	C415.025909,977.851257 414.544464,972.576782 418.060181,969.097839 
	C421.425720,965.767395 424.578400,966.489929 429.968445,971.992859 
	C431.515839,970.627319 433.079132,969.247681 434.977112,967.699585 
z"/>
<path fill="#F8F4F8" opacity="1.000000" stroke="none" 
	d="
M214.048599,987.475891 
	C205.979370,988.880493 200.235382,985.316162 199.048309,978.516785 
	C197.979034,972.392151 202.121384,966.326904 208.224152,965.081421 
	C214.128235,963.876587 220.237823,967.980347 221.759476,974.173218 
	C223.039230,979.381470 220.336899,984.249451 214.048599,987.475891 
z"/>
<path fill="#F8F4F8" opacity="1.000000" stroke="none" 
	d="
M334.230347,991.952881 
	C333.889465,992.368530 333.675293,992.551819 333.303528,992.875000 
	C332.003143,993.336975 330.869537,993.669739 329.401062,994.133423 
	C324.347839,994.185974 319.629425,994.107727 314.445007,994.075256 
	C308.586731,992.612976 306.697021,988.910217 307.082977,983.548218 
	C307.309540,980.400452 307.193085,977.222046 307.120453,974.059998 
	C307.016754,969.544983 308.649963,966.293152 313.634186,964.946167 
	C319.016937,964.874207 324.061920,964.933716 329.573486,964.935181 
	C331.573425,965.735291 333.106781,966.593384 334.901154,967.651978 
	C335.554077,974.436157 335.945984,981.019958 336.320099,988.035339 
	C336.053802,988.977234 335.805267,989.487488 335.511536,990.280273 
	C335.093506,990.945251 334.720734,991.327576 334.230347,991.952881 
M324.065338,981.409912 
	C326.454407,981.013367 328.843475,980.616821 331.232544,980.220276 
	C331.477173,979.604858 331.721802,978.989380 331.966461,978.373962 
	C325.158447,979.109985 321.705780,976.429565 322.752594,969.167847 
	C322.140533,969.453979 321.528473,969.740112 320.916412,970.026306 
	C320.554932,972.441284 320.193451,974.856323 319.813812,977.392700 
	C317.171814,977.833435 314.612366,978.260376 312.052887,978.687378 
	C312.058594,979.216736 312.064331,979.746155 312.070038,980.275513 
	C314.652252,980.706482 317.234497,981.137512 319.752960,981.557861 
	C320.184143,984.198181 320.576782,986.602539 320.969391,989.006897 
	C321.500366,988.998657 322.031311,988.990356 322.562286,988.982117 
	C322.867767,986.672485 323.173248,984.362915 324.065338,981.409912 
z"/>
<path fill="#DEDDDE" opacity="1.000000" stroke="none" 
	d="
M263.535309,34.475025 
	C263.532867,35.682747 263.735779,36.625328 263.405182,37.310524 
	C262.412231,39.368660 261.211121,41.326393 260.091217,43.323303 
	C259.149445,42.171864 257.294342,40.892624 257.434265,39.892529 
	C257.884644,36.673885 259.070923,33.558212 259.973389,30.402828 
	C261.147858,31.632622 262.322296,32.862419 263.535309,34.475025 
z"/>
<path fill="#EEECEE" opacity="1.000000" stroke="none" 
	d="
M275.046936,38.818356 
	C275.873993,35.841030 276.667572,33.284203 277.633240,30.794121 
	C277.699799,30.622471 279.681244,30.859797 279.709045,31.056883 
	C280.110718,33.904789 280.655487,36.802364 280.446625,39.635002 
	C280.352081,40.917171 278.673615,42.082554 277.713745,43.300919 
	C276.827362,41.952217 275.940948,40.603519 275.046936,38.818356 
z"/>
<path fill="#555156" opacity="1.000000" stroke="none" 
	d="
M25.375538,36.914108 
	C27.070553,30.279234 30.699646,27.590679 35.922951,28.720001 
	C40.104763,29.624144 42.802979,33.656178 42.100517,38.131012 
	C41.402283,42.578938 38.263298,45.023079 34.227036,45.087738 
	C29.430304,45.164585 26.267534,42.235653 25.375538,36.914108 
M29.960228,32.357227 
	C27.114864,35.486629 27.068857,38.732826 30.281836,41.423012 
	C32.911858,43.625099 36.241234,43.411194 38.145699,40.623569 
	C39.304230,38.927788 39.796803,35.757290 38.996136,33.957729 
	C37.392242,30.352842 33.998772,30.238428 29.960228,32.357227 
z"/>
<path fill="#F8F4F8" opacity="1.000000" stroke="none" 
	d="
M453.642639,31.608498 
	C453.523529,36.801983 453.109680,41.813198 452.580505,47.219513 
	C445.486420,51.854431 437.981110,50.053608 430.729523,49.001690 
	C429.211761,48.781517 427.426361,45.388905 427.076782,43.244267 
	C426.467926,39.508949 426.801453,35.605549 426.882355,31.775608 
	C427.010040,25.728649 429.282440,23.407993 435.432037,23.188463 
	C439.257660,23.051893 443.093872,23.212524 447.371826,23.298397 
	C447.569794,27.480129 448.598236,30.728180 453.642639,31.608498 
M447.656677,38.264221 
	C448.183380,37.558277 448.710114,36.852329 450.096222,34.994583 
	C446.539642,35.985519 444.525787,36.546623 442.531586,37.102249 
	C440.084503,33.171329 435.929352,33.417664 430.103943,38.795029 
	C432.487946,38.318451 433.522980,38.124458 434.551971,37.902496 
	C435.786377,37.636238 438.042419,36.967758 438.098846,37.120972 
	C440.228424,42.900105 443.938232,38.730812 447.656677,38.264221 
z"/>
<path fill="#EEECEE" opacity="1.000000" stroke="none" 
	d="
M504.580780,28.615902 
	C502.527893,29.628138 500.474976,30.640364 497.936401,31.892067 
	C495.526459,29.237226 493.085785,26.548512 490.284058,23.462091 
	C497.681702,23.462091 504.823425,23.461941 511.965118,23.476973 
	C511.975281,23.476994 512.040222,23.748917 511.985046,23.815695 
	C511.775024,24.069830 511.526154,24.291862 510.750305,24.787024 
	C508.332825,26.237400 506.456787,27.426647 504.580780,28.615902 
z"/>
<path fill="#EEECEE" opacity="1.000000" stroke="none" 
	d="
M513.536865,26.940220 
	C510.454346,32.401997 507.255981,37.750237 503.990417,43.431206 
	C503.129791,43.694462 501.937042,43.913429 501.631958,43.491138 
	C501.112732,42.772404 501.327911,41.568016 500.927460,40.711216 
	C498.491882,35.500523 500.006836,32.128803 506.075348,30.213110 
	C508.172119,28.873175 509.691650,27.822081 511.523926,26.798603 
	C512.222412,26.663383 512.608093,26.500544 512.993835,26.337704 
	C513.127686,26.508165 513.270020,26.671158 513.536865,26.940220 
z"/>
<path fill="#6A666B" opacity="1.000000" stroke="none" 
	d="
M511.211182,26.770988 
	C509.691650,27.822081 508.172119,28.873175 506.325928,29.961529 
	C505.722778,29.651913 505.446259,29.305038 504.875244,28.787027 
	C506.456787,27.426647 508.332825,26.237400 510.544067,25.016069 
	C510.879272,24.983986 511.111053,24.859249 511.119812,25.363731 
	C511.156097,26.169140 511.183624,26.470066 511.211182,26.770988 
z"/>
<path fill="#555156" opacity="1.000000" stroke="none" 
	d="
M511.523926,26.798607 
	C511.183624,26.470066 511.156097,26.169140 511.235291,25.426863 
	C511.829926,25.250582 512.317749,25.515654 512.899719,26.059216 
	C512.608093,26.500544 512.222412,26.663383 511.523926,26.798607 
z"/>
<path fill="#EEECEE" opacity="1.000000" stroke="none" 
	d="
M309.950653,43.906624 
	C308.932129,43.445511 307.019623,43.089462 306.969299,42.557266 
	C306.653076,39.214333 306.567108,35.816727 306.847900,32.474403 
	C306.914276,31.684242 308.612640,30.660416 309.681549,30.485575 
	C310.196747,30.401306 311.623596,32.094601 311.554230,32.888287 
	C311.251129,36.355274 310.550812,39.787540 309.932434,43.614349 
	C309.870178,43.996288 309.917572,43.930256 309.950653,43.906624 
z"/>
<path fill="#7D797D" opacity="1.000000" stroke="none" 
	d="
M323.772034,981.731567 
	C323.173248,984.362915 322.867767,986.672485 322.562286,988.982117 
	C322.031311,988.990356 321.500366,988.998657 320.969391,989.006897 
	C320.576782,986.602539 320.184143,984.198181 319.752960,981.557861 
	C317.234497,981.137512 314.652252,980.706482 312.070038,980.275513 
	C312.064331,979.746155 312.058594,979.216736 312.052887,978.687378 
	C314.612366,978.260376 317.171814,977.833435 319.813812,977.392700 
	C320.193451,974.856323 320.554932,972.441284 320.916412,970.026306 
	C321.528473,969.740112 322.140533,969.453979 322.752594,969.167847 
	C321.705780,976.429565 325.158447,979.109985 331.966461,978.373962 
	C331.721802,978.989380 331.477173,979.604858 331.232544,980.220276 
	C328.843475,980.616821 326.454407,981.013367 323.772034,981.731567 
z"/>
<path fill="#F3F3F3" opacity="1.000000" stroke="none" 
	d="
M30.281246,32.119926 
	C33.998772,30.238428 37.392242,30.352842 38.996136,33.957729 
	C39.796803,35.757290 39.304230,38.927788 38.145699,40.623569 
	C36.241234,43.411194 32.911858,43.625099 30.281836,41.423012 
	C27.068857,38.732826 27.114864,35.486629 30.281246,32.119926 
z"/>
<path fill="#555156" opacity="1.000000" stroke="none" 
	d="
M447.304565,38.439526 
	C443.938232,38.730812 440.228424,42.900105 438.098846,37.120972 
	C438.042419,36.967758 435.786377,37.636238 434.551971,37.902496 
	C433.522980,38.124458 432.487946,38.318451 430.103943,38.795029 
	C435.929352,33.417664 440.084503,33.171329 442.531586,37.102249 
	C444.525787,36.546623 446.539642,35.985519 450.096222,34.994583 
	C448.710114,36.852329 448.183380,37.558277 447.304565,38.439526 
z"/>
</svg>